<svg xmlns="http://www.w3.org/2000/svg" width="46.195" height="43.564" viewBox="0 0 46.195 43.564">
  <path id="Icon_ionic-md-arrow-round-forward" data-name="Icon ionic-md-arrow-round-forward" d="M32.515,48.664,50.639,31.078a4,4,0,0,0,1.181-2.94v-.052a4,4,0,0,0-1.181-2.94L32.515,7.56a3.881,3.881,0,0,0-5.669,0,4.341,4.341,0,0,0,0,5.932l10.893,10.42H9.654a4.2,4.2,0,0,0-.013,8.4H37.726L26.833,42.732a4.341,4.341,0,0,0,0,5.932A3.9,3.9,0,0,0,32.515,48.664Z" transform="translate(-5.625 -6.33)" fill="#fc4545"/>
</svg>
