<svg xmlns="http://www.w3.org/2000/svg" width="39.723" height="31.037" viewBox="0 0 39.723 31.037">
    <defs>
        <style>
            .cls-1{fill:#fff}
        </style>
    </defs>
    <path id="Icon_awesome-exchange-alt" d="M0 12.627v-1.241a1.862 1.862 0 0 1 1.862-1.862h27.93V5.8a1.863 1.863 0 0 1 3.179-1.317l6.207 6.207a1.862 1.862 0 0 1 0 2.633l-6.207 6.207a1.863 1.863 0 0 1-3.179-1.317v-3.724H1.862A1.862 1.862 0 0 1 0 12.627zM37.861 24.42H9.931V20.7a1.863 1.863 0 0 0-3.179-1.317L.545 25.586a1.862 1.862 0 0 0 0 2.633l6.207 6.207a1.863 1.863 0 0 0 3.179-1.317v-3.724h27.93a1.862 1.862 0 0 0 1.862-1.862v-1.241a1.862 1.862 0 0 0-1.862-1.862z" class="cls-1" data-name="Icon awesome-exchange-alt" transform="translate(0 -3.936)"/>
</svg>
