<svg xmlns="http://www.w3.org/2000/svg" width="37.556" height="28.62" viewBox="0 0 37.556 28.62">
    <defs>
        <style>
            .cls-1{fill:#fff}
        </style>
    </defs>
    <path id="Icon_awesome-sign-out-alt" d="M37.036 20.075L24.517 32.594a1.791 1.791 0 0 1-3.055-1.267v-7.154H11.327a1.784 1.784 0 0 1-1.788-1.788v-7.154a1.784 1.784 0 0 1 1.788-1.788h10.134V6.289a1.792 1.792 0 0 1 3.055-1.267l12.52 12.519a1.8 1.8 0 0 1 0 2.534zM14.308 32.221V29.24a.9.9 0 0 0-.894-.894h-6.26a2.382 2.382 0 0 1-2.385-2.385V11.654a2.382 2.382 0 0 1 2.385-2.385h6.26a.9.9 0 0 0 .894-.894V5.394a.9.9 0 0 0-.894-.894h-6.26A7.156 7.156 0 0 0 0 11.654v14.308a7.156 7.156 0 0 0 7.154 7.154h6.26a.9.9 0 0 0 .894-.895z" class="cls-1" data-name="Icon awesome-sign-out-alt" transform="translate(0 -4.499)"/>
</svg>
