<svg xmlns="http://www.w3.org/2000/svg" width="35.098" height="35.098" viewBox="0 0 35.098 35.098">
    <defs>
        <style>
            .cls-1{fill:#fff}
        </style>
    </defs>
    <path id="Icon_awesome-align-justify" d="M33.844 32.334H1.253A1.253 1.253 0 0 0 0 33.587v2.507a1.253 1.253 0 0 0 1.253 1.253h32.591a1.253 1.253 0 0 0 1.256-1.253v-2.507a1.253 1.253 0 0 0-1.256-1.253zm0-10.028H1.253A1.253 1.253 0 0 0 0 23.559v2.507a1.253 1.253 0 0 0 1.253 1.254h32.591a1.253 1.253 0 0 0 1.256-1.254v-2.507a1.253 1.253 0 0 0-1.256-1.253zm0-10.028H1.253A1.253 1.253 0 0 0 0 13.531v2.507a1.253 1.253 0 0 0 1.253 1.253h32.591a1.253 1.253 0 0 0 1.256-1.253v-2.507a1.253 1.253 0 0 0-1.256-1.253zm0-10.028H1.253A1.253 1.253 0 0 0 0 3.5v2.51a1.253 1.253 0 0 0 1.253 1.254h32.591A1.253 1.253 0 0 0 35.1 6.01V3.5a1.253 1.253 0 0 0-1.256-1.25z" class="cls-1" data-name="Icon awesome-align-justify" transform="translate(0 -2.25)"/>
</svg>
